<svg width="1920" height="1080" viewBox="0 0 1920 1080" fill="none" xmlns="http://www.w3.org/2000/svg">
  <rect width="1920" height="1080" fill="#0A0A0A"/>
  <rect x="60" y="60" width="1800" height="960" rx="16" fill="#111111" stroke="#1A1A1A" stroke-width="2"/>
  <!-- DAG Nodes -->
  <circle cx="300" cy="300" r="40" fill="#00FF66" fill-opacity="0.2" stroke="#00FF66" stroke-width="2"/>
  <circle cx="600" cy="200" r="40" fill="#00FF66" fill-opacity="0.2" stroke="#00FF66" stroke-width="2"/>
  <circle cx="600" cy="400" r="40" fill="#00FF66" fill-opacity="0.2" stroke="#00FF66" stroke-width="2"/>
  <circle cx="900" cy="300" r="40" fill="#00FF66" fill-opacity="0.2" stroke="#00FF66" stroke-width="2"/>
  <circle cx="1200" cy="200" r="40" fill="#00FF66" fill-opacity="0.2" stroke="#00FF66" stroke-width="2"/>
  <circle cx="1200" cy="400" r="40" fill="#00FF66" fill-opacity="0.2" stroke="#00FF66" stroke-width="2"/>
  <circle cx="1500" cy="300" r="40" fill="#00FF66" fill-opacity="0.2" stroke="#00FF66" stroke-width="2"/>
  <!-- Connections -->
  <line x1="340" y1="280" x2="560" y2="220" stroke="#00FF66" stroke-opacity="0.5" stroke-width="2"/>
  <line x1="340" y1="320" x2="560" y2="380" stroke="#00FF66" stroke-opacity="0.5" stroke-width="2"/>
  <line x1="640" y1="220" x2="860" y2="280" stroke="#00FF66" stroke-opacity="0.5" stroke-width="2"/>
  <line x1="640" y1="380" x2="860" y2="320" stroke="#00FF66" stroke-opacity="0.5" stroke-width="2"/>
  <line x1="940" y1="280" x2="1160" y2="220" stroke="#00FF66" stroke-opacity="0.5" stroke-width="2"/>
  <line x1="940" y1="320" x2="1160" y2="380" stroke="#00FF66" stroke-opacity="0.5" stroke-width="2"/>
  <line x1="1240" y1="220" x2="1460" y2="280" stroke="#00FF66" stroke-opacity="0.5" stroke-width="2"/>
  <line x1="1240" y1="380" x2="1460" y2="320" stroke="#00FF66" stroke-opacity="0.5" stroke-width="2"/>
  <!-- Bottom panel -->
  <rect x="100" y="550" width="1700" height="400" rx="12" fill="#0D0D0D"/>
  <rect x="120" y="580" width="300" height="30" rx="6" fill="#1A1A1A"/>
  <rect x="120" y="630" width="1660" height="60" rx="8" fill="#00FF66" fill-opacity="0.05"/>
  <text x="960" y="900" text-anchor="middle" font-family="monospace" font-size="24" fill="#444444">DataFlow Engine - Pipeline Orchestrator</text>
</svg>
