<?xml version="1.0" encoding="UTF-8"?>
<!DOCTYPE svg PUBLIC "-//W3C//DTD SVG 1.1//EN" "http://www.w3.org/Graphics/SVG/1.1/DTD/svg11.dtd">
<svg xmlns="http://www.w3.org/2000/svg" version="1.1" width="1080px" height="1080px" style="shape-rendering:geometricPrecision; text-rendering:geometricPrecision; image-rendering:optimizeQuality; fill-rule:evenodd; clip-rule:evenodd" xmlns:xlink="http://www.w3.org/1999/xlink">
<g><path style="opacity:1" fill="#02fe67" d="M -0.5,-0.5 C 359.5,-0.5 719.5,-0.5 1079.5,-0.5C 1079.5,359.5 1079.5,719.5 1079.5,1079.5C 719.5,1079.5 359.5,1079.5 -0.5,1079.5C -0.5,719.5 -0.5,359.5 -0.5,-0.5 Z"/></g>
<g><path style="opacity:1" fill="#000100" d="M 589.5,197.5 C 589.42,200.781 590.087,203.781 591.5,206.5C 591.886,217.493 592.219,228.493 592.5,239.5C 618.744,306.064 641.911,373.731 662,442.5C 682.412,453.411 697.912,469.078 708.5,489.5C 699.766,491.365 691.1,493.532 682.5,496C 680.354,496.479 679.354,497.812 679.5,500C 702.424,579.335 723.924,659.168 744,739.5C 744.667,741.833 744.667,744.167 744,746.5C 724.386,774.359 701.552,799.359 675.5,821.5C 668.964,825.6 662.298,829.433 655.5,833C 649.684,834.409 644.517,833.242 640,829.5C 635.138,818.582 630.472,807.582 626,796.5C 596.876,709.349 572.709,620.683 553.5,530.5C 539.271,532.547 525.271,535.214 511.5,538.5C 496.841,539.722 482.175,540.722 467.5,541.5C 466.833,541.167 466.167,540.833 465.5,540.5C 462.471,538.628 460.305,535.961 459,532.5C 458.53,503.948 470.697,482.448 495.5,468C 508.84,464.21 522.006,460.043 535,455.5C 532.962,441.472 530.462,427.472 527.5,413.5C 524.948,393.968 521.448,374.634 517,355.5C 513.636,360.23 510.803,365.23 508.5,370.5C 485.192,418.062 464.192,466.729 445.5,516.5C 416.712,589.427 387.878,662.427 359,735.5C 350.202,750.479 337.369,759.979 320.5,764C 305.205,765.587 290.205,764.253 275.5,760C 274.692,759.692 274.025,759.192 273.5,758.5C 343.625,610.593 411.791,461.927 478,312.5C 495.742,270.687 513.742,229.02 532,187.5C 537.626,177.763 544.126,168.596 551.5,160C 559.51,154.048 567.51,154.215 575.5,160.5C 582.307,167.448 586.474,175.782 588,185.5C 588.828,189.466 589.328,193.466 589.5,197.5 Z"/></g>
<g><path style="opacity:1" fill="#0f4a1c" d="M 589.5,197.5 C 590.913,200.219 591.58,203.219 591.5,206.5C 590.087,203.781 589.42,200.781 589.5,197.5 Z"/></g>
<g><path style="opacity:1" fill="#1ad060" d="M 527.5,413.5 C 524.494,401.32 521.661,388.986 519,376.5C 518.736,371.137 518.236,365.803 517.5,360.5C 517.167,359.833 516.833,359.167 516.5,358.5C 514.087,360.93 514.087,363.263 516.5,365.5C 516.333,366.167 516.167,366.833 516,367.5C 515.751,366.376 515.251,365.376 514.5,364.5C 512.046,366.103 510.046,368.103 508.5,370.5C 510.803,365.23 513.636,360.23 517,355.5C 521.448,374.634 524.948,393.968 527.5,413.5 Z"/></g>
<g><path style="opacity:1" fill="#06fb67" d="M 527.5,413.5 C 530.462,427.472 532.962,441.472 535,455.5C 522.006,460.043 508.84,464.21 495.5,468C 470.697,482.448 458.53,503.948 459,532.5C 460.305,535.961 462.471,538.628 465.5,540.5C 462.951,540.559 460.951,539.559 459.5,537.5C 452.619,543.451 449.952,541.951 451.5,533C 450.342,531.991 449.675,530.658 449.5,529C 450.942,522.844 452.276,516.677 453.5,510.5C 452.948,508.667 452.115,507 451,505.5C 450.316,506.784 450.483,507.951 451.5,509C 449.361,511.478 447.361,513.978 445.5,516.5C 464.192,466.729 485.192,418.062 508.5,370.5C 510.046,368.103 512.046,366.103 514.5,364.5C 515.251,365.376 515.751,366.376 516,367.5C 516.167,366.833 516.333,366.167 516.5,365.5C 514.087,363.263 514.087,360.93 516.5,358.5C 516.833,359.167 517.167,359.833 517.5,360.5C 518.236,365.803 518.736,371.137 519,376.5C 521.661,388.986 524.494,401.32 527.5,413.5 Z"/></g>
<g><path style="opacity:1" fill="#23d86c" d="M 511.5,538.5 C 496.95,541.711 482.283,542.711 467.5,541.5C 482.175,540.722 496.841,539.722 511.5,538.5 Z"/></g>
</svg>
